<?xml version="1.0" encoding="UTF-8"?><svg id="Layer_2" xmlns="http://www.w3.org/2000/svg" viewBox="0 0 40.46 39"><defs><style>.cls-1{stroke-width:0px;}</style></defs><g id="Layer_1-2"><path class="cls-1" d="M40.05,25.02h0s-4.73,4.73-4.73,4.73c-.55.55-1.45.55-2,0-.55-.55-.55-1.45,0-2l2.3-2.3h-6.5s-9.93,0-9.93,0c-.76-.02-1.37-.63-1.39-1.39-.02-.78.6-1.43,1.39-1.45h16.43l-2.3-2.31c-.55-.55-.55-1.45,0-2,.55-.55,1.45-.55,2,0l4.73,4.72c.55.55.55,1.45,0,2Z"/><path class="cls-1" d="M27,20.21v-5.96h-7.42c-.85,0-1.71-.25-2.38-.78-.93-.73-1.45-1.81-1.45-2.97V3H6c-1.65,0-3,1.35-3,3v27c0,1.65,1.35,3,3,3h18c1.65,0,3-1.35,3-3v-5.17h3v5.17c0,3.31-2.69,6-6,6H6c-3.31,0-6-2.69-6-6V6C0,2.69,2.69,0,6,0h11.07c1.08,0,2.11.43,2.87,1.19l8.87,8.87c.76.76,1.19,1.79,1.19,2.87v7.28h-3Z"/></g></svg>