<svg xmlns="http://www.w3.org/2000/svg" width="20.286" height="16" viewBox="0 0 20.286 16">
  <path id="Path_22" data-name="Path 22" d="M13.124,32.371a1.142,1.142,0,0,0-1.686,0L8.3,35.8a1.143,1.143,0,1,0,1.686,1.543l1.157-1.261V46.857a1.143,1.143,0,0,0,2.286,0V36.082l1.157,1.264A1.143,1.143,0,0,0,16.267,35.8l-3.143-3.429ZM19.139,48h1.143a1.143,1.143,0,1,0,0-2.286H19.139a1.143,1.143,0,1,0,0,2.286Zm0-4.571h3.429a1.143,1.143,0,1,0,0-2.286H19.139a1.143,1.143,0,1,0,0,2.286Zm0-4.571h5.714a1.143,1.143,0,0,0,0-2.286H19.139a1.143,1.143,0,1,0,0,2.286Zm0-4.571h8a1.143,1.143,0,1,0,0-2.286h-8a1.143,1.143,0,1,0,0,2.286Z" transform="translate(-7.996 -32)" fill="#fff"/>
</svg>
