<svg xmlns="http://www.w3.org/2000/svg" width="20" height="21.719" viewBox="0 0 20 21.719">
  <path id="Icon_simple-databricks" data-name="Icon simple-databricks" d="M1.425,12.836l10,5.628L20.4,13.442v2l-8.976,5.067L1.937,15.115l-.511.279v.7l10,5.629,10-5.627V12.186l-.466-.28-9.534,5.4L2.5,12.186v-2l8.929,5.023,10-5.627V5.719l-.466-.279-9.534,5.4L2.961,6.046l8.464-4.79,7.023,3.953.6-.372V4.325L11.425,0l-10,5.674v.652l10,5.626L20.4,6.929V8.975l-8.976,5.071L1.937,8.652l-.511.279Z" transform="translate(-1.425)" fill="#333"/>
</svg>
